<svg width="62" height="62" viewBox="0 0 62 62" fill="none" xmlns="http://www.w3.org/2000/svg">
<g clip-path="url(#clip0)">
<path d="M55.9612 15.7471C39.3493 13.9821 22.5969 13.9821 5.98493 15.7471C2.87187 16.0647 0.503255 18.6849 0.5 21.8142L0.5 41.2937C0.50837 43.7609 2.5143 45.7548 4.9815 45.7478H12.2706C13.2526 45.7445 14.2054 45.4172 14.9819 44.8164C15.5956 46.5787 17.2561 47.7602 19.1221 47.763H27.5875C28.9006 47.7593 30.1431 47.1669 30.9731 46.1491C31.8031 47.1669 33.0455 47.7593 34.3586 47.763H42.8241C44.6896 47.7607 46.35 46.5792 46.9643 44.8174C47.7408 45.4181 48.694 45.7455 49.6756 45.7487H56.9646C59.4323 45.7557 61.4382 43.7614 61.4461 41.2937V21.8142C61.4429 18.6849 59.0743 16.0647 55.9612 15.7471V15.7471ZM45.1936 32.5084V35.2183C44.2302 35.2713 43.2147 35.3192 42.1466 35.3615V33.5425C42.1466 32.4205 41.2371 31.511 40.1151 31.511H37.0676C35.9456 31.511 35.0361 32.4205 35.0361 33.5425V35.5475C34.054 35.5596 33.0362 35.5679 31.9891 35.5707V32.798C32.0123 28.7048 35.3444 25.4025 39.4376 25.4164C43.9819 25.4164 45.1936 29.0996 45.1936 31.2762V32.5084ZM53.9111 25.8833H54.1143C55.5134 25.781 56.8903 26.2776 57.9011 27.2499C58.9125 28.2226 59.4625 29.5785 59.4146 30.9804V33.7331C58.9557 33.8219 58.2843 33.9363 57.3831 34.0758V32.5265C57.3831 31.4045 56.4736 30.495 55.3516 30.495H52.3041C51.1821 30.495 50.2726 31.4045 50.2726 32.5265V34.8742C49.3306 34.9528 48.3151 35.0276 47.2256 35.0988V32.5084C47.2465 28.8345 50.2373 25.8712 53.9111 25.8833V25.8833ZM55.3516 38.621H52.3041V36.742C53.4438 36.6323 54.4598 36.5221 55.3516 36.4119V38.621ZM52.3041 34.6901V32.5265H55.3516V34.3548C54.4668 34.4636 53.455 34.5785 52.3041 34.6901ZM40.1151 39.637H37.0676V37.5464C38.1222 37.5264 39.141 37.5009 40.1151 37.4702V39.637ZM37.0676 35.5131V33.5425H40.1151V35.435C39.141 35.4661 38.1231 35.4917 37.0676 35.5131ZM29.9571 35.574C28.9099 35.574 27.8921 35.5628 26.9101 35.5507V33.5425C26.9101 32.4205 26.0006 31.511 24.8786 31.511H21.8311C20.7091 31.511 19.7996 32.4205 19.7996 33.5425V35.3615C18.7324 35.3192 17.7164 35.2713 16.7525 35.2183V31.2762C16.7525 29.0996 17.9643 25.4164 22.5085 25.4164C26.6018 25.4025 29.9338 28.7048 29.9571 32.798V35.574ZM24.8786 39.637H21.8311V37.4702C22.8061 37.5009 23.8249 37.5264 24.8786 37.5464V39.637ZM21.8311 35.435V33.5425H24.8786V35.5131C23.824 35.4917 22.8061 35.4661 21.8311 35.435ZM14.7206 35.0988C13.6297 35.0276 12.6142 34.9528 11.6735 34.8742V32.5265C11.6735 31.4045 10.764 30.495 9.64202 30.495H6.59452C5.47252 30.495 4.56301 31.4045 4.56301 32.5265V34.0758C3.66188 33.9396 2.99044 33.8219 2.53151 33.7331V30.9804C2.48361 29.578 3.03415 28.2208 4.04642 27.2485C5.05822 26.2757 6.43596 25.7796 7.83602 25.8833H8.03922C11.7112 25.8735 14.6996 28.8359 14.7206 32.5084V35.0988ZM9.64202 38.621H6.59452V36.4119C7.48589 36.5202 8.50141 36.6304 9.64202 36.742V38.621ZM6.59452 34.3548V32.5265H9.64202V34.6901C8.49118 34.5785 7.47938 34.4636 6.59452 34.3548ZM12.2706 43.7182H4.9815C3.63538 43.7251 2.53895 42.6399 2.53151 41.2937L2.53151 35.8083C3.03927 35.9041 3.71396 36.018 4.56301 36.1427V38.621C4.56301 39.743 5.47252 40.653 6.59452 40.653H9.64202C10.764 40.653 11.6735 39.743 11.6735 38.621V36.922C12.6193 36.9982 13.6297 37.0731 14.7206 37.1424V41.2937C14.7122 42.6389 13.6158 43.7233 12.2706 43.7163V43.7182ZM27.5875 45.7315H19.1221C17.8211 45.7371 16.7614 44.689 16.7525 43.388V37.2591C17.7174 37.3098 18.7329 37.3567 19.7996 37.399V39.637C19.7996 40.759 20.7091 41.6685 21.8311 41.6685H24.8786C26.0006 41.6685 26.9101 40.759 26.9101 39.637V37.5799C27.8912 37.5925 28.9109 37.5994 29.9571 37.6022V43.3922C29.9459 44.6914 28.8867 45.7371 27.5875 45.7315ZM45.1936 43.388C45.1848 44.689 44.1251 45.7371 42.8241 45.7315H34.3586C33.0576 45.7371 31.9979 44.689 31.9891 43.388V37.6055C33.0353 37.6055 34.055 37.5953 35.0361 37.5832V39.637C35.0361 40.759 35.9456 41.6685 37.0676 41.6685H40.1151C41.2371 41.6685 42.1466 40.759 42.1466 39.637V37.4023C43.2147 37.3609 44.2302 37.3144 45.1936 37.2623V43.3913V43.388ZM56.9646 43.7163H49.6756C48.3304 43.7233 47.234 42.6389 47.2256 41.2937V37.1424C48.3164 37.0731 49.3269 36.9982 50.2726 36.922V38.621C50.2726 39.743 51.1821 40.653 52.3041 40.653H55.3516C56.4736 40.653 57.3831 39.743 57.3831 38.621V36.1385C58.2322 36.0139 58.9069 35.8999 59.4146 35.8046V41.2895C59.4119 41.9363 59.1519 42.5552 58.6925 43.0104C58.2327 43.4657 57.6114 43.7195 56.9646 43.7163V43.7163ZM54.1092 23.8518H53.906C50.9222 23.8518 48.1449 25.3765 46.5439 27.8948C45.3722 25.0338 42.5209 23.225 39.4334 23.3845C35.8596 23.3863 32.5898 25.3951 30.9731 28.5825C29.3559 25.3941 26.0838 23.3849 22.5085 23.3845C19.4211 23.225 16.5698 25.0338 15.3985 27.8948C13.7971 25.3765 11.0202 23.8518 8.03597 23.8518H7.83277C5.86403 23.7737 3.94877 24.5037 2.53151 25.8721L2.53151 21.8091C2.53941 19.7209 4.12361 17.9763 6.20161 17.7675C8.53071 17.5197 10.8658 17.3155 13.2033 17.1379C13.3535 17.2332 13.5269 17.2858 13.705 17.29C14.1458 17.29 14.7206 19.2606 14.7206 21.353C14.7206 21.9142 15.1758 22.369 15.7365 22.369C16.2973 22.369 16.7525 21.9142 16.7525 21.353C16.773 19.8501 16.5038 18.3571 15.9588 16.9561C20.6189 16.6566 25.2849 16.4939 29.9571 16.4683V22.369C29.9571 22.9297 30.4123 23.3845 30.9731 23.3845C31.5338 23.3845 31.9891 22.9297 31.9891 22.369V16.4683C36.6612 16.4888 41.3273 16.6511 45.9873 16.9561C45.4429 18.3571 45.1732 19.8501 45.1936 21.353C45.1936 21.9142 45.6488 22.369 46.2096 22.369C46.7704 22.369 47.2256 21.9142 47.2256 21.353C47.2256 19.2606 47.8003 17.29 48.2411 17.29C48.4192 17.2858 48.5922 17.2332 48.7428 17.1388C51.0794 17.3165 53.4154 17.5197 55.7455 17.7675C57.8249 17.9767 59.4095 19.7246 59.4146 21.8142V25.8772C57.9969 24.506 56.0803 23.7741 54.1092 23.8518V23.8518Z" fill="url(#paint0_linear)"/>
</g>
<defs>
<linearGradient id="paint0_linear" x1="30.9731" y1="14.4233" x2="30.9731" y2="47.763" gradientUnits="userSpaceOnUse">
<stop stop-color="#18BBEB"/>
<stop offset="1" stop-color="#0170B0"/>
</linearGradient>
<clipPath id="clip0">
<rect width="60.9461" height="60.9461" fill="white" transform="translate(0.5 0.615234)"/>
</clipPath>
</defs>
</svg>
