<svg width="62" height="62" viewBox="0 0 62 62" fill="none" xmlns="http://www.w3.org/2000/svg">
<g clip-path="url(#clip0)">
<path d="M55.705 38.7762V37.1846C55.705 35.5018 54.3407 34.1372 52.6576 34.1372H50.6261C48.9462 34.1372 47.5833 35.4967 47.5787 37.1767C45.5821 36.9144 43.5158 36.7103 41.4844 36.5578V35.1531C41.4844 33.4704 40.1201 32.1057 38.4374 32.1057H36.406C34.7228 32.1057 33.3586 33.4704 33.3586 35.1531V36.1863C32.6476 36.1751 31.9711 36.1691 31.3271 36.1691C30.6831 36.1691 30.0066 36.1751 29.2957 36.1863V35.1531C29.2957 33.4704 27.9315 32.1057 26.2483 32.1057H24.2168C22.5341 32.1057 21.1699 33.4704 21.1699 35.1531V36.5578C19.1384 36.7103 17.0712 36.9144 15.0751 37.1767C15.0709 35.4967 13.7076 34.1372 12.0281 34.1372H9.99669C8.31351 34.1372 6.94929 35.5018 6.94929 37.1846V38.7762C3.31091 39.8446 0.85495 41.3065 0.85495 43.2789L0.85495 51.4052C0.857275 52.1273 1.24413 52.794 1.87044 53.1539V54.4521C1.87044 56.1353 3.23512 57.4995 4.91784 57.4995H6.12072C6.54942 58.7126 7.69417 59.5254 8.98074 59.531H12.0281C12.5531 59.5277 13.0678 59.3877 13.5221 59.1246C14.0777 60.008 15.0476 60.5446 16.091 60.5464H20.1539C20.6789 60.5437 21.1941 60.4037 21.6483 60.1405C22.2035 61.0235 23.1734 61.5605 24.2168 61.5624H29.2957C30.0475 61.5596 30.7719 61.2774 31.3271 60.7701C31.8823 61.2774 32.6067 61.5596 33.3586 61.5624H38.4374C39.4808 61.5605 40.4503 61.0235 41.0059 60.1405C41.4602 60.4037 41.9754 60.5437 42.5003 60.5464H46.5632C47.6066 60.5446 48.5765 60.008 49.1322 59.1246C49.586 59.3877 50.1012 59.5277 50.6261 59.531H53.6735C54.9601 59.5254 56.1048 58.7126 56.5335 57.4995H57.7364C59.4191 57.4995 60.7833 56.1353 60.7833 54.4521V53.1539C61.4101 52.794 61.797 52.1273 61.7993 51.4052V43.2789C61.7993 41.3065 59.3433 39.8446 55.705 38.7762ZM49.6106 37.1846C49.6106 36.6238 50.0653 36.1691 50.6261 36.1691H52.6576C53.2188 36.1691 53.6735 36.6238 53.6735 37.1846V38.2452C52.4018 37.9504 51.0325 37.6923 49.6106 37.4691V37.1846ZM35.39 35.1531C35.39 34.5924 35.8448 34.1372 36.406 34.1372H38.4374C38.9982 34.1372 39.4529 34.5924 39.4529 35.1531V36.4206C38.0543 36.3365 36.6901 36.2765 35.39 36.236V35.1531ZM23.2013 35.1531C23.2013 34.5924 23.6561 34.1372 24.2168 34.1372H26.2483C26.8095 34.1372 27.2642 34.5924 27.2642 35.1531V36.236C25.9642 36.2765 24.6 36.3374 23.2013 36.4206V35.1531ZM8.98074 37.1846C8.98074 36.6238 9.43548 36.1691 9.99669 36.1691H12.0281C12.5889 36.1691 13.0436 36.6238 13.0436 37.1846V37.4691C11.6218 37.6923 10.2524 37.9504 8.98074 38.2452V37.1846ZM31.3271 38.2005C49.7292 38.2005 59.7678 41.5525 59.7678 43.2789V49.2993C59.2745 48.8516 58.6287 48.6088 57.9628 48.6209C57.3091 48.6228 56.6735 48.8367 56.1518 49.23C55.4199 47.9388 54.0278 47.1651 52.545 47.2251C51.1562 47.2283 49.8329 47.8165 48.8992 48.8455C48.0692 47.4911 46.566 46.6978 44.9795 46.7773C43.3675 46.7769 41.8359 47.4822 40.7878 48.7069C39.8904 47.153 38.198 46.2333 36.406 46.3263C34.362 46.3277 32.4547 47.3539 31.3271 49.0585C30.1996 47.3539 28.2923 46.3277 26.2483 46.3263C24.4544 46.2329 22.7601 47.1544 21.8636 48.7111C20.8156 47.4859 19.2835 46.781 17.6715 46.7815C16.0869 46.7025 14.5855 47.4934 13.755 48.8455C12.8214 47.8189 11.4995 47.2325 10.1125 47.2293C8.62829 47.1679 7.23478 47.9421 6.50246 49.2342C5.98076 48.8404 5.34515 48.6265 4.6914 48.6246C4.02603 48.6121 3.38019 48.8529 2.8864 49.2993V43.2789C2.8864 41.5525 12.9251 38.2005 31.3271 38.2005ZM3.90235 54.4521V51.7432C3.90235 51.5614 3.93955 50.6524 4.6914 50.6524C5.4679 50.7788 6.01191 51.4875 5.9338 52.2705V55.4681H4.91784C4.35709 55.4681 3.90235 55.0133 3.90235 54.4521ZM12.0281 57.4995H8.98074C8.41999 57.4995 7.96525 57.0448 7.96525 56.4835V51.4052C7.92758 50.8258 8.14147 50.2581 8.55204 49.8475C8.9626 49.4369 9.52987 49.2231 10.1092 49.2607C11.7292 49.2626 13.0422 50.5752 13.0436 52.1951V56.4835C13.0436 57.0448 12.5889 57.4995 12.0281 57.4995ZM20.1539 58.515H16.091C15.5298 58.515 15.0751 58.0603 15.0751 57.4995V51.4052C15.0411 50.7063 15.3038 50.0261 15.7981 49.5318C16.2928 49.0371 16.9731 48.7748 17.6715 48.8088C19.6029 48.8111 21.168 50.3766 21.1699 52.3081V57.4995C21.1699 58.0603 20.7151 58.515 20.1539 58.515ZM29.2957 59.531H24.2168C23.6561 59.531 23.2013 59.0762 23.2013 58.515V51.4052C23.1613 50.5854 23.4701 49.7871 24.0499 49.2068C24.6302 48.6265 25.4285 48.3182 26.2483 48.3578C28.4922 48.3578 30.3112 50.1767 30.3112 52.4207V58.515C30.3112 59.0762 29.8564 59.531 29.2957 59.531ZM39.4529 58.515C39.4529 59.0762 38.9982 59.531 38.4374 59.531H33.3586C32.7978 59.531 32.3426 59.0762 32.3426 58.515V52.4207C32.3426 50.1767 34.162 48.3578 36.406 48.3578C37.2252 48.3182 38.0236 48.6265 38.6039 49.2068C39.1842 49.7871 39.4924 50.5854 39.4529 51.4052V58.515ZM47.5787 57.4995C47.5787 58.0603 47.124 58.515 46.5632 58.515H42.5003C41.9391 58.515 41.4844 58.0603 41.4844 57.4995V52.3081C41.4862 50.3766 43.0513 48.8111 44.9828 48.8088C45.6812 48.7748 46.3614 49.0371 46.8561 49.5318C47.3504 50.0261 47.6131 50.7063 47.5787 51.4052V57.4995ZM54.689 56.4835C54.689 57.0448 54.2343 57.4995 53.6735 57.4995H50.6261C50.0653 57.4995 49.6106 57.0448 49.6106 56.4835V52.1951C49.612 50.5752 50.9251 49.2626 52.545 49.2607C53.1244 49.2231 53.6916 49.4369 54.1022 49.8475C54.5128 50.2581 54.7267 50.8258 54.689 51.4052V56.4835ZM58.7519 54.4521C58.7519 55.0133 58.2971 55.4681 57.7364 55.4681H56.7204V52.2705C56.6423 51.4875 57.1863 50.7788 57.9628 50.6524C58.7147 50.6524 58.7519 51.5665 58.7519 51.7432V54.4521Z" fill="url(#paint0_linear)"/>
<path d="M61.411 2.83283L61.7323 1.99914C61.9336 1.47512 61.6723 0.886938 61.1483 0.685607C60.6243 0.484276 60.0361 0.745588 59.8348 1.26961L59.5149 2.10376C56.7739 9.14431 50.0058 13.7926 42.4505 13.8233L20.2055 13.8233C12.6498 13.7935 5.8803 9.14524 3.13931 2.10376L2.81941 1.26961C2.61808 0.745588 2.02989 0.484276 1.50587 0.685607C0.981855 0.886938 0.720543 1.47512 0.921874 1.99914L1.2427 2.83283C4.28871 10.6559 11.8086 15.8203 20.2036 15.8547L42.4482 15.8547C50.8441 15.8213 58.365 10.6564 61.411 2.83283Z" fill="url(#paint1_linear)"/>
<path d="M25.2327 30.0742C25.7935 30.0742 26.2482 29.6195 26.2482 29.0587V21.3532L27.5617 22.6668C27.9602 23.0513 28.594 23.0462 28.9855 22.6542C29.3774 22.2623 29.383 21.629 28.998 21.2305L25.9506 18.1831C25.9418 18.1738 25.9292 18.171 25.9204 18.1626C25.8334 18.0775 25.7325 18.0092 25.6214 17.9594C25.6135 17.9594 25.6033 17.9594 25.5954 17.9534C25.4926 17.9153 25.3848 17.8939 25.275 17.8906C25.2411 17.8906 25.2076 17.8929 25.1737 17.8967C25.0886 17.9018 25.0044 17.9181 24.924 17.9455C24.8891 17.9553 24.8552 17.9669 24.8221 17.9808C24.7092 18.0292 24.6059 18.0985 24.5176 18.184L21.4702 21.2314C21.0852 21.6299 21.0908 22.2632 21.4827 22.6552C21.8742 23.0471 22.508 23.0527 22.9065 22.6677L24.2168 21.3532V29.0587C24.2168 29.6195 24.6715 30.0742 25.2327 30.0742Z" fill="url(#paint2_linear)"/>
<path d="M37.4215 30.0742C37.9827 30.0742 38.4374 29.6195 38.4374 29.0587V21.3532L39.7505 22.6668C40.149 23.0513 40.7827 23.0462 41.1747 22.6542C41.5662 22.2623 41.5718 21.629 41.1868 21.2305L38.1399 18.1831C38.1306 18.1738 38.1185 18.171 38.1092 18.1626C38.0227 18.0775 37.9213 18.0092 37.8107 17.9594C37.8023 17.9594 37.7921 17.9594 37.7842 17.9534C37.6819 17.9153 37.5735 17.8939 37.4643 17.8906C37.4303 17.8906 37.3964 17.8929 37.3624 17.8967C37.2773 17.9018 37.1936 17.9181 37.1127 17.9455C37.0783 17.9553 37.0444 17.9669 37.0114 17.9808C36.8979 18.0292 36.7947 18.0985 36.7064 18.184L33.6594 21.2314C33.2744 21.6299 33.28 22.2632 33.6715 22.6552C34.0635 23.0471 34.6968 23.0527 35.0957 22.6677L36.406 21.3532V29.0587C36.406 29.6195 36.8607 30.0742 37.4215 30.0742Z" fill="url(#paint3_linear)"/>
<path d="M51.642 32.1057C52.2028 32.1057 52.6575 31.651 52.6575 31.0902V23.3847L53.9711 24.6983C54.3695 25.0828 55.0028 25.0777 55.3948 24.6857C55.7868 24.2938 55.7923 23.6605 55.4073 23.262L52.3599 20.2146C52.3506 20.2053 52.3385 20.2025 52.3297 20.1941C52.2428 20.1095 52.1419 20.0407 52.0307 19.9909C52.0219 19.9909 52.0126 19.9909 52.0033 19.9849C51.901 19.9472 51.7936 19.9258 51.6843 19.9221C51.6504 19.9221 51.6165 19.9244 51.583 19.9282C51.4974 19.9333 51.4133 19.9496 51.3319 19.977C51.2984 19.9881 51.2659 19.9974 51.2305 20.0114C51.1175 20.0602 51.0143 20.129 50.926 20.2146L47.8786 23.262C47.4936 23.6605 47.4992 24.2938 47.8911 24.6857C48.2826 25.0777 48.9164 25.0828 49.3149 24.6983L50.6261 23.3847V31.0902C50.6261 31.651 51.0808 32.1057 51.642 32.1057Z" fill="url(#paint4_linear)"/>
<path d="M9.9967 32.1056C10.5575 32.1056 11.0122 31.6508 11.0122 31.0901V23.3846L12.3257 24.6982C12.7242 25.0827 13.358 25.0776 13.7495 24.6856C14.1414 24.2936 14.147 23.6604 13.762 23.2619L10.7146 20.2145C10.7058 20.2052 10.6932 20.2024 10.6844 20.194C10.5974 20.1094 10.4965 20.0406 10.3854 19.9908C10.3775 19.9908 10.3673 19.9908 10.358 19.9848C10.2562 19.9467 10.1483 19.9257 10.039 19.9229C10.0055 19.9225 9.97159 19.9239 9.93765 19.9281C9.85209 19.9332 9.76793 19.9494 9.68656 19.9769C9.53405 20.021 9.39456 20.102 9.28065 20.2126L6.23324 23.2596C5.84825 23.658 5.85383 24.2918 6.2458 24.6838C6.6373 25.0753 7.27105 25.0808 7.66953 24.6958L8.98074 23.3846V31.0901C8.98074 31.6508 9.43548 32.1056 9.9967 32.1056Z" fill="url(#paint5_linear)"/>
</g>
<defs>
<linearGradient id="paint0_linear" x1="31.3271" y1="32.1057" x2="31.3271" y2="61.5624" gradientUnits="userSpaceOnUse">
<stop stop-color="#18BBEB"/>
<stop offset="1" stop-color="#0170B0"/>
</linearGradient>
<linearGradient id="paint1_linear" x1="31.3271" y1="0.617676" x2="31.3271" y2="15.8547" gradientUnits="userSpaceOnUse">
<stop stop-color="#18BBEB"/>
<stop offset="1" stop-color="#0170B0"/>
</linearGradient>
<linearGradient id="paint2_linear" x1="25.2341" y1="17.8906" x2="25.2341" y2="30.0742" gradientUnits="userSpaceOnUse">
<stop stop-color="#18BBEB"/>
<stop offset="1" stop-color="#0170B0"/>
</linearGradient>
<linearGradient id="paint3_linear" x1="37.4231" y1="17.8906" x2="37.4231" y2="30.0742" gradientUnits="userSpaceOnUse">
<stop stop-color="#18BBEB"/>
<stop offset="1" stop-color="#0170B0"/>
</linearGradient>
<linearGradient id="paint4_linear" x1="51.643" y1="19.9221" x2="51.643" y2="32.1057" gradientUnits="userSpaceOnUse">
<stop stop-color="#18BBEB"/>
<stop offset="1" stop-color="#0170B0"/>
</linearGradient>
<linearGradient id="paint5_linear" x1="9.99763" y1="19.9229" x2="9.99763" y2="32.1056" gradientUnits="userSpaceOnUse">
<stop stop-color="#18BBEB"/>
<stop offset="1" stop-color="#0170B0"/>
</linearGradient>
<clipPath id="clip0">
<rect width="60.9461" height="60.9461" fill="white" transform="translate(0.854004 0.615234)"/>
</clipPath>
</defs>
</svg>
