<svg width="62" height="62" viewBox="0 0 62 62" fill="none" xmlns="http://www.w3.org/2000/svg">
<g clip-path="url(#clip0)">
<path d="M55.3908 5.36926C54.5038 2.65623 52.0095 0.791929 49.1561 0.709229C46.1941 0.804688 44.3472 3.36981 43.6058 5.73881C43.4238 6.37348 43.2981 7.02326 43.231 7.68014C43.1885 8.00527 43.146 8.33134 43.0831 8.66025C43.0647 8.76186 43.0392 8.85023 43.0188 8.94569C33.6487 8.91592 28.9542 17.4113 28.0922 19.1707C27.5894 20.209 27.3687 21.3611 27.4523 22.5118L25.709 24.5803L24.5918 25.9002C20.3732 25.1398 12.1552 26.221 0.882902 39.592C-0.230951 40.9138 -0.0627148 42.8886 1.25907 44.0025C2.58085 45.1168 4.55573 44.9481 5.66958 43.6263C6.33686 42.8343 6.98948 42.1032 7.618 41.4147L7.6284 41.4067V41.3986C18.1819 29.9373 24.0782 32.218 24.0923 32.2189C25.4051 32.9661 27.0639 32.6712 28.0383 31.5176L30.4399 28.668L31.1507 29.0744C31.1667 29.0853 31.1842 29.0957 31.2017 29.1056L31.6351 29.3537L29.0751 32.3895C28.1163 33.5119 28.0813 35.1545 28.992 36.3166C29.0293 36.3733 32.3345 41.7946 22.7885 54.1789H22.7824V54.1888C22.2101 54.9303 21.5986 55.6925 20.9313 56.4845C20.1478 57.415 19.9743 58.7151 20.4861 59.8185C20.9979 60.922 22.1023 61.629 23.3187 61.6318C23.409 61.6318 23.4993 61.628 23.59 61.6195C24.4175 61.5519 25.1835 61.1555 25.717 60.5189C36.9813 47.1569 36.6594 38.8784 35.194 34.8459L36.3112 33.5199L38.0375 31.4689C39.1929 31.356 40.2973 30.9349 41.2349 30.2502C44.0576 28.2077 46.2961 25.4611 47.7276 22.284C48.3547 22.1262 48.9444 21.8464 49.4638 21.4608C50.3796 20.8271 51.2392 20.1159 52.0332 19.3342C52.6782 18.7695 53.4282 18.3371 54.2405 18.0621C54.5449 17.9463 54.8639 17.8499 55.1777 17.7573C55.8128 17.5796 56.4314 17.3461 57.0259 17.0597C59.2342 15.9284 61.4501 13.6742 61.0437 10.7419C60.4908 7.93249 58.2248 5.77851 55.3908 5.36926V5.36926ZM40.7822 17.6008C41.0681 17.8523 41.4381 17.9879 41.819 17.9817C42.5297 17.9817 43.5907 17.5758 45.2541 16.3154C44.4474 18.0276 43.3789 19.6036 42.0869 20.9864C41.1205 21.9027 39.6626 22.0638 38.5195 21.3805L37.6982 20.9093L37.6514 20.881L35.0347 19.3739C36.0134 17.1977 38.6192 14.8533 40.9466 13.1057C40.8044 13.3718 40.6702 13.6431 40.5482 13.9181C40.2052 14.6756 39.4008 16.4374 40.7822 17.6008V17.6008ZM39.9433 11.3147C37.5063 13.1119 34.4365 15.7824 33.1856 18.5403C32.2021 18.3503 31.1847 18.5857 30.3842 19.1873C31.5987 17.0616 34.6954 12.6143 39.9433 11.3147ZM3.36674 42.7095C3.07564 42.7379 2.78595 42.6462 2.56431 42.4558C2.10119 42.064 2.04212 41.3717 2.43247 40.9072C2.86298 40.3996 3.28735 39.911 3.70699 39.4379L5.38415 40.8542C4.96498 41.3254 4.54155 41.8117 4.1101 42.3235C3.92343 42.546 3.65595 42.685 3.36674 42.7095V42.7095ZM6.76312 39.3585L5.07981 37.9399C9.94258 32.7855 14.061 30.1457 17.3204 28.8641L18.1228 30.9297C15.19 32.0748 11.3754 34.4915 6.76312 39.3585ZM30.6256 33.7037L33.4233 30.3844L34.1789 30.8168C34.1907 30.8239 34.2049 30.8258 34.2181 30.8329C34.2314 30.84 34.2304 30.8442 34.2385 30.8485C34.6553 31.0375 35.09 31.1849 35.5361 31.288L33.2494 34.0043C33.0013 34.2987 32.9412 34.7089 33.0944 35.0624C33.7796 36.7882 34.0239 38.6577 33.8051 40.5022L31.6095 40.0551C31.8222 38.3789 31.4956 36.6781 30.6776 35.1994C30.6587 35.1706 30.6384 35.1427 30.6167 35.1163C30.2755 34.7042 30.2797 34.1064 30.6266 33.6995L30.6256 33.7037ZM26.6343 56.1089L24.9515 54.6874C28.9674 49.3189 30.7088 45.1494 31.3364 42.0659L33.5074 42.5073C32.8009 45.9386 30.8879 50.4451 26.6343 56.1089ZM23.4114 59.6064C23.1203 59.6357 22.8301 59.5435 22.6089 59.3521C22.1458 58.9608 22.0867 58.268 22.4771 57.804C22.9085 57.296 23.3168 56.7884 23.7096 56.2998L25.3881 57.7156C24.9931 58.2099 24.5871 58.7094 24.1566 59.2203C23.9699 59.4433 23.701 59.5827 23.4114 59.6064V59.6064ZM40.0497 28.6061C39.2954 29.1529 38.3919 29.4558 37.4605 29.4742H37.4534C36.6642 29.4936 35.8797 29.3433 35.1534 29.0338L32.2451 27.3694L32.2007 27.342L30.7183 26.4899C30.6847 26.472 30.6469 26.471 30.6167 26.4554C30.5543 26.4271 30.4886 26.4053 30.4215 26.3907C30.361 26.3784 30.2996 26.3713 30.2377 26.3704C30.1696 26.3685 30.1016 26.3737 30.0349 26.3855C29.9735 26.3964 29.9135 26.4134 29.8558 26.4361C29.7944 26.4587 29.7348 26.4876 29.6796 26.5225C29.6233 26.558 29.5709 26.5996 29.5241 26.6463C29.4929 26.6676 29.4626 26.6912 29.4348 26.7163L26.4897 30.2147C26.1466 30.6193 25.5639 30.7228 25.1027 30.4605C25.0729 30.443 25.0422 30.4274 25.0105 30.4137C23.4147 29.8556 21.6827 29.8197 20.0651 30.3121L19.2532 28.2233C21.0343 27.6955 22.9189 27.6217 24.7364 28.0083C25.1103 28.099 25.5034 27.9705 25.7515 27.6761L31.3496 21.035C31.8236 20.4764 32.6284 20.3347 33.265 20.6971L36.6013 22.6101L36.649 22.6394L37.5124 23.1332C39.4476 24.2712 41.904 23.9806 43.5207 22.4225C44.9068 20.9594 46.0617 19.2941 46.9469 17.4832C46.3061 23.8804 40.7921 28.0702 40.0497 28.6061V28.6061ZM56.0996 15.2441C55.6091 15.4757 55.0997 15.6647 54.5765 15.8089C54.224 15.9185 53.8719 16.0281 53.5317 16.1552C52.4674 16.5229 51.4873 17.0985 50.6471 17.848C50.0157 18.4543 49.3456 19.0195 48.6415 19.5393C49.1505 17.3891 49.1557 15.1506 48.6566 12.998C48.5541 12.5547 48.1689 12.2334 47.7143 12.2121C47.3448 12.206 46.9998 12.3964 46.8075 12.7116C46.3396 12.8695 45.9096 13.1218 45.5433 13.4531C44.5263 14.4682 43.3392 15.2975 42.0359 15.9034C42.0827 15.4974 42.2074 15.1047 42.4036 14.7465C42.8284 13.8434 43.3298 12.9777 43.9016 12.1592C44.4961 11.206 44.8968 10.1446 45.0802 9.03595C45.1492 8.67349 45.1979 8.30866 45.2456 7.94431C45.3014 7.40368 45.403 6.86826 45.5504 6.34512C46.058 4.72042 47.3263 2.80036 49.2303 2.7394C51.3697 2.85282 53.1617 4.39765 53.5898 6.49635C53.5898 6.50958 53.6007 6.51856 53.6026 6.53179C53.6049 6.54502 53.6026 6.56156 53.6026 6.57668C53.905 7.75622 53.8927 8.99483 53.5671 10.1682C53.3497 10.6852 53.5926 11.2807 54.1096 11.4985C54.6266 11.7159 55.2221 11.473 55.4395 10.956C55.8307 9.86768 55.9564 8.70137 55.8071 7.55444C57.4342 8.03268 58.6714 9.35824 59.0362 11.0141C59.2933 12.8936 57.6156 14.4686 56.0996 15.2441V15.2441Z" fill="url(#paint0_linear)"/>
<path d="M35.6439 25.0685C35.6439 25.6295 35.1893 26.0841 34.6284 26.0841C34.0679 26.0841 33.6133 25.6295 33.6133 25.0685C33.6133 24.5076 34.0679 24.053 34.6284 24.053C35.1893 24.053 35.6439 24.5076 35.6439 25.0685Z" fill="url(#paint1_linear)"/>
<path d="M51.1962 4.81166C50.1282 4.44306 48.952 4.5612 47.9785 5.1349C47.1657 5.7724 46.7276 6.77662 46.8136 7.80635C46.8136 8.3673 47.2682 8.82191 47.8292 8.82191C48.3901 8.82191 48.8447 8.3673 48.8447 7.80635C48.8017 7.43586 48.9175 7.06441 49.1632 6.78371C49.6065 6.59373 50.1051 6.57814 50.5597 6.74023C51.0923 6.91603 51.6669 6.62634 51.8427 6.09375C52.0185 5.56116 51.7288 4.98652 51.1962 4.81072V4.81166Z" fill="url(#paint2_linear)"/>
</g>
<defs>
<linearGradient id="paint0_linear" x1="30.6192" y1="0.709229" x2="30.6192" y2="61.6318" gradientUnits="userSpaceOnUse">
<stop stop-color="#18BBEB"/>
<stop offset="1" stop-color="#0170B0"/>
</linearGradient>
<linearGradient id="paint1_linear" x1="34.6286" y1="24.053" x2="34.6286" y2="26.0841" gradientUnits="userSpaceOnUse">
<stop stop-color="#18BBEB"/>
<stop offset="1" stop-color="#0170B0"/>
</linearGradient>
<linearGradient id="paint2_linear" x1="49.3485" y1="4.60059" x2="49.3485" y2="8.82191" gradientUnits="userSpaceOnUse">
<stop stop-color="#18BBEB"/>
<stop offset="1" stop-color="#0170B0"/>
</linearGradient>
<clipPath id="clip0">
<rect width="60.9461" height="60.9461" fill="white" transform="translate(0.146172 0.615479)"/>
</clipPath>
</defs>
</svg>
