<svg width="62" height="62" viewBox="0 0 62 62" fill="none" xmlns="http://www.w3.org/2000/svg">
<g clip-path="url(#clip0)">
<path d="M14.8969 22.8923C14.2821 22.5553 13.5103 22.7806 13.1732 23.3957L13.1477 23.4419C12.8107 24.0568 13.0359 24.8287 13.6511 25.1656C13.8448 25.2718 14.0539 25.3221 14.2602 25.3221C14.709 25.3221 15.1439 25.0836 15.3749 24.6622L15.4003 24.6161C15.7373 24.0011 15.5119 23.2293 14.8969 22.8923Z" fill="url(#paint0_linear)"/>
<path d="M55.5306 26.9294C53.5339 19.1578 47.9357 12.6974 40.3818 9.67838C39.077 5.60356 35.2403 2.78516 30.9347 2.78516C26.519 2.78516 22.7695 5.68629 21.4882 9.68207C16.9388 11.5043 13.0428 14.5782 10.1925 18.6053C8.3919 21.1496 7.0937 23.9622 6.33354 26.9297C3.05494 27.1746 0.461517 29.9185 0.461517 33.2585C0.461517 36.6004 3.05756 39.3457 6.33877 39.5878C9.15837 50.538 19.1165 58.6529 30.9347 58.6529C42.7527 58.6529 52.7108 50.538 55.5303 39.5878C58.8115 39.3457 61.4077 36.6004 61.4077 33.2582C61.4077 29.9167 58.8117 27.1717 55.5306 26.9294ZM3.00114 33.2582C3.00114 31.5061 4.19066 30.0267 5.8043 29.5843C5.69527 30.34 5.61932 31.103 5.57814 31.8718C5.57742 31.8825 5.57707 31.893 5.57647 31.9037C5.56909 32.0437 5.56254 32.1838 5.55754 32.3242C5.55552 32.3774 5.55445 32.4306 5.55302 32.4838C5.54993 32.5845 5.54671 32.6851 5.54481 32.7859C5.54207 32.9434 5.5404 33.1009 5.5404 33.2584C5.5404 33.4506 5.54338 33.6427 5.5479 33.8351C5.54921 33.8953 5.55088 33.9553 5.55278 34.0153C5.55683 34.1552 5.56231 34.295 5.56873 34.4348C5.57135 34.4941 5.57373 34.5535 5.57671 34.6129C5.58599 34.7874 5.59718 34.9616 5.60992 35.1359C5.61599 35.2178 5.62313 35.2992 5.6298 35.3809C5.63849 35.4842 5.64753 35.5876 5.65741 35.6908C5.6661 35.7818 5.67503 35.8728 5.68467 35.9634C5.69586 36.0696 5.7086 36.1757 5.7211 36.2816C5.73764 36.4204 5.75538 36.5588 5.77407 36.6968C5.78478 36.7758 5.79466 36.8548 5.80609 36.9333C4.19149 36.4916 3.00114 35.0113 3.00114 33.2582ZM30.9347 5.32478C33.4496 5.32478 35.7497 6.61631 37.0922 8.63789C37.0669 8.63765 37.0416 8.63753 37.0162 8.63753C36.9998 8.63753 36.9839 8.63872 36.9674 8.63884C36.9611 8.63908 36.9547 8.63896 36.9483 8.63932C32.9947 8.6761 29.7898 11.9022 29.7898 15.8641C29.7898 17.4058 30.2742 18.8716 31.1445 20.081C31.0746 20.0829 31.0045 20.084 30.9347 20.084C26.8657 20.084 23.5553 16.7736 23.5553 12.7046C23.5552 8.63527 26.8656 5.32478 30.9347 5.32478ZM53.7812 33.86C53.7805 33.8909 53.7787 33.9216 53.7777 33.9526C53.7725 34.1227 53.7663 34.2929 53.7574 34.463C53.7558 34.4933 53.7534 34.5237 53.7517 34.5541C53.742 34.7239 53.7313 34.8939 53.718 35.0636C53.7154 35.0979 53.7117 35.132 53.7088 35.1662C53.6952 35.3303 53.6804 35.4942 53.6633 35.6579C53.6587 35.7035 53.6527 35.7488 53.6477 35.7943C53.6311 35.9443 53.6137 36.094 53.5942 36.2436C53.586 36.3063 53.5767 36.3685 53.5679 36.4309C53.55 36.5603 53.5317 36.6895 53.5113 36.8185C53.4981 36.9024 53.4838 36.9857 53.4697 37.0694C53.4522 37.1738 53.4347 37.2781 53.4156 37.3821C53.3963 37.4879 53.3757 37.5931 53.3549 37.6983C53.3394 37.7771 53.324 37.856 53.3075 37.9347C51.1436 48.3016 41.9343 56.1133 30.9345 56.1133C19.9265 56.1133 10.7118 48.2905 8.55652 37.9123C8.537 37.8182 8.51903 37.7236 8.50081 37.6291C8.4832 37.5389 8.46522 37.4486 8.4488 37.3581C8.42546 37.2297 8.40416 37.1008 8.38297 36.972C8.37333 36.9129 8.36273 36.8538 8.35357 36.7945C8.32833 36.6315 8.30524 36.4681 8.28334 36.3045C8.27965 36.2767 8.27512 36.2491 8.27167 36.2214C8.24667 36.0287 8.22382 35.8353 8.2037 35.642C8.2037 35.6412 8.20346 35.6401 8.20346 35.6393C8.12121 34.8489 8.07967 34.0536 8.07967 33.2587C8.07967 33.0793 8.08264 32.8998 8.08693 32.7204C8.08848 32.6615 8.09026 32.6027 8.09217 32.5439C8.09586 32.4232 8.10085 32.3025 8.10657 32.1818C8.10978 32.1116 8.11288 32.0412 8.11681 31.9711C8.12288 31.8642 8.13049 31.7573 8.13799 31.6505C8.15121 31.466 8.16609 31.2819 8.18358 31.0982C8.18561 31.0771 8.18727 31.0561 8.1893 31.0351C8.96969 23.1324 13.8641 16.1193 21.0167 12.6646C21.0167 12.6781 21.0157 12.6913 21.0157 12.7047C21.0157 13.6137 21.141 14.4934 21.371 15.3302C19.092 16.5437 17.0907 18.1607 15.4131 20.1487C14.9607 20.6848 15.0287 21.4859 15.5647 21.938C15.803 22.1391 16.0937 22.2372 16.383 22.2372C16.7441 22.2372 17.1029 22.0839 17.354 21.7863C18.7711 20.107 20.452 18.7307 22.3606 17.6822C24.0809 20.6339 27.2789 22.6236 30.9347 22.6236C32.0558 22.6236 33.1573 22.4372 34.2082 22.0697C34.6659 21.9096 34.9925 21.5029 35.0499 21.0213C35.1073 20.5398 34.8853 20.0676 34.4779 19.8046C33.1326 18.9355 32.3293 17.4626 32.3293 15.8643C32.3293 13.3323 34.3478 11.2643 36.8602 11.1813C45.2943 13.4379 51.5669 20.2575 53.3047 28.5693C53.3334 28.7068 53.3613 28.8445 53.3874 28.9826C53.401 29.0547 53.4135 29.1273 53.4267 29.1997C53.4469 29.3127 53.4668 29.4259 53.4854 29.5392C53.4966 29.6071 53.5072 29.675 53.5178 29.7431C53.5374 29.8706 53.5562 29.9982 53.5736 30.1261C53.581 30.1793 53.5886 30.2325 53.5956 30.2858C53.6439 30.6569 53.6833 31.0295 53.7137 31.4028C53.7171 31.4456 53.7199 31.4886 53.7231 31.5316C53.734 31.6752 53.7435 31.819 53.7517 31.9628C53.7548 32.0186 53.7577 32.0747 53.7605 32.1306C53.7674 32.2675 53.7725 32.4045 53.7768 32.5414C53.7786 32.5944 53.7805 32.6473 53.7819 32.7002C53.7864 32.8864 53.7893 33.0725 53.7893 33.2585C53.7892 33.459 53.7864 33.6596 53.7812 33.86ZM56.0631 36.9333C56.077 36.8374 56.0896 36.741 56.1025 36.6447C56.1161 36.543 56.1292 36.4411 56.1417 36.339C56.1572 36.2109 56.1721 36.0826 56.1858 35.9543C56.1947 35.8702 56.203 35.7859 56.2108 35.7016C56.2215 35.591 56.2313 35.4804 56.2405 35.3698C56.2468 35.2931 56.2535 35.2167 56.2591 35.1398C56.2722 34.9635 56.2834 34.7872 56.2928 34.6106C56.296 34.5537 56.2979 34.4967 56.3007 34.4397C56.3071 34.2976 56.3126 34.1558 56.3168 34.0136C56.3185 33.9545 56.3202 33.8952 56.3218 33.8359C56.3259 33.6434 56.329 33.4509 56.329 33.2582C56.329 33.0907 56.327 32.9233 56.3238 32.7558C56.3225 32.695 56.3204 32.6342 56.3188 32.5734C56.316 32.4683 56.3128 32.3632 56.3089 32.258C56.3059 32.1832 56.3021 32.1085 56.2988 32.0338C56.2944 31.9434 56.2899 31.8531 56.2844 31.7629C56.2797 31.6817 56.2746 31.6008 56.269 31.5198C56.2633 31.4365 56.2571 31.3534 56.2506 31.2702C56.244 31.1858 56.2375 31.1013 56.23 31.0172C56.2227 30.9357 56.2147 30.8547 56.2068 30.7734C56.1987 30.6897 56.1908 30.6059 56.1819 30.5222C56.1718 30.4277 56.1602 30.3336 56.1489 30.2393C56.1364 30.1344 56.1237 30.0298 56.1099 29.9252C56.0948 29.8112 56.0799 29.6972 56.0633 29.5835C57.6782 30.0251 58.8683 31.5052 58.8683 33.258C58.868 35.0115 57.6779 36.4916 56.0631 36.9333Z" fill="url(#paint1_linear)"/>
<path d="M26.4177 34.7284C25.8237 32.5119 23.8066 30.9639 21.5119 30.9639C19.2176 30.9639 17.2002 32.5119 16.6061 34.7284C16.4246 35.4058 16.8266 36.102 17.5039 36.2836C18.1814 36.4649 18.8776 36.0631 19.0591 35.3858C19.3562 34.2775 20.3648 33.5034 21.5118 33.5034C22.659 33.5034 23.6675 34.2775 23.9645 35.3858C24.1165 35.953 24.6297 36.3271 25.1902 36.3271C25.2989 36.3271 25.4096 36.3131 25.5197 36.2836C26.1974 36.102 26.5993 35.4058 26.4177 34.7284Z" fill="url(#paint2_linear)"/>
<path d="M40.3575 30.9639C38.0629 30.9639 36.0455 32.512 35.4516 34.7285C35.2702 35.4059 35.6722 36.1022 36.3496 36.2836C37.0268 36.4652 37.7231 36.063 37.9046 35.3857C38.2015 34.2775 39.2101 33.5034 40.3574 33.5034C41.5045 33.5034 42.5131 34.2775 42.8101 35.3858C42.9621 35.953 43.4751 36.3271 44.0358 36.3271C44.1445 36.3271 44.2552 36.3131 44.3653 36.2836C45.0428 36.102 45.4446 35.4057 45.2631 34.7284C44.6691 32.512 42.6519 30.9639 40.3575 30.9639Z" fill="url(#paint3_linear)"/>
<path d="M34.9427 43.6369C34.2655 43.4554 33.5691 43.8572 33.3875 44.5347C33.0904 45.6431 32.0818 46.4172 30.9348 46.4172C29.7875 46.4172 28.7789 45.6431 28.4821 44.5347C28.3005 43.8573 27.6043 43.4553 26.9269 43.6369C26.2494 43.8184 25.8476 44.5146 26.0291 45.1921C26.6231 47.4087 28.6403 48.9567 30.9349 48.9567C33.2293 48.9567 35.2467 47.4086 35.8407 45.1921C36.022 44.5147 35.62 43.8184 34.9427 43.6369Z" fill="url(#paint4_linear)"/>
</g>
<defs>
<linearGradient id="paint0_linear" x1="14.274" y1="22.7358" x2="14.274" y2="25.3221" gradientUnits="userSpaceOnUse">
<stop stop-color="#18BBEB"/>
<stop offset="1" stop-color="#0170B0"/>
</linearGradient>
<linearGradient id="paint1_linear" x1="30.9346" y1="2.78516" x2="30.9346" y2="58.6529" gradientUnits="userSpaceOnUse">
<stop stop-color="#18BBEB"/>
<stop offset="1" stop-color="#0170B0"/>
</linearGradient>
<linearGradient id="paint2_linear" x1="21.5119" y1="30.9639" x2="21.5119" y2="36.3271" gradientUnits="userSpaceOnUse">
<stop stop-color="#18BBEB"/>
<stop offset="1" stop-color="#0170B0"/>
</linearGradient>
<linearGradient id="paint3_linear" x1="40.3574" y1="30.9639" x2="40.3574" y2="36.3272" gradientUnits="userSpaceOnUse">
<stop stop-color="#18BBEB"/>
<stop offset="1" stop-color="#0170B0"/>
</linearGradient>
<linearGradient id="paint4_linear" x1="30.9349" y1="43.5933" x2="30.9349" y2="48.9567" gradientUnits="userSpaceOnUse">
<stop stop-color="#18BBEB"/>
<stop offset="1" stop-color="#0170B0"/>
</linearGradient>
<clipPath id="clip0">
<rect width="60.9461" height="60.9461" fill="white" transform="translate(0.461517 0.246094)"/>
</clipPath>
</defs>
</svg>
